<?xml version="1.0" encoding="utf-8"?>
<!-- Generator: Adobe Illustrator 16.0.3, SVG Export Plug-In . SVG Version: 6.00 Build 0)  -->
<!DOCTYPE svg PUBLIC "-//W3C//DTD SVG 1.1//EN" "http://www.w3.org/Graphics/SVG/1.1/DTD/svg11.dtd">
<svg version="1.1" id="Layer_1" xmlns="http://www.w3.org/2000/svg" xmlns:xlink="http://www.w3.org/1999/xlink" x="0px" y="0px"
	 width="1280px" height="850px" viewBox="0 0 1280 850" enable-background="new 0 0 1280 850" xml:space="preserve">
<g>
	<g>
		<g>
			<path fill="#C1272D" d="M427.013,171.703c13.921,0,25.067,3.884,33.437,11.649c8.366,7.768,12.554,17.908,12.554,30.422
				c0,12.818-4.223,23.223-12.664,31.214c-8.443,7.995-19.552,11.989-33.326,11.989c-13.629,0-24.738-4.033-33.327-12.102
				c-8.591-8.065-12.886-18.434-12.886-31.101c0-12.515,4.255-22.655,12.775-30.422
				C402.091,175.587,413.237,171.703,427.013,171.703z M427.013,335.277c13.921,0,25.141,3.884,33.658,11.649
				c8.516,7.768,12.775,17.908,12.775,30.419c0,12.667-4.26,23-12.775,30.988c-8.518,7.994-19.737,11.988-33.658,11.988
				c-13.629,0-24.738-4.033-33.327-12.098c-8.591-8.065-12.886-18.36-12.886-30.878c0-12.363,4.295-22.464,12.886-30.31
				C402.275,339.2,413.384,335.277,427.013,335.277z"/>
			<path fill="#C1272D" d="M618.181,295.782c11.408,7.448,19.289,16.111,23.645,25.996c4.352,9.881,6.531,26.904,6.531,51.074
				v33.218c0,15.252,1.246,24.835,3.746,28.771c2.498,3.924,7.229,6.578,14.199,7.969c1.668,0.445,4.168,0.893,7.5,1.336
				c17.111,2.518,25.672,10.73,25.672,24.645c0,6.811-2.486,12.285-7.463,16.434c-4.977,4.143-11.613,6.217-19.904,6.217
				c-10.559,0-20.775-1.727-30.65-5.172c-9.879-3.449-18.059-8.174-24.542-14.172c-7.09-6.449-12.102-14.771-15.041-24.963
				c-2.941-10.199-4.412-27.666-4.412-52.406v-26.788c0-27.139-12.518-42.746-37.547-46.818c-1.057-0.3-1.81-0.452-2.262-0.452
				c-7.238-1.215-12.594-3.803-16.061-7.761c-3.47-3.959-5.201-9.666-5.201-17.126c0-6.547,1.469-11.72,4.41-15.523
				c2.94-3.803,7.652-6.545,14.137-8.221c2.863-0.901,7.012-1.877,12.441-2.929c20.053-3.754,30.082-18.629,30.082-44.621v-26.817
				c0-23.029,1.131-39.169,3.393-48.43c2.264-9.256,6.107-17.346,11.537-24.272c6.332-7.677,14.814-13.657,25.445-17.948
				c10.631-4.29,22.356-6.435,35.172-6.435c7.992,0,14.4,2.075,19.227,6.22c4.824,4.149,7.238,9.613,7.238,16.399
				c0,14.175-9.164,22.696-27.488,25.56c-1.67,0.152-2.881,0.303-3.637,0.452c-7.572,1.202-12.801,3.944-15.678,8.227
				c-2.877,4.285-4.314,14.012-4.314,29.184v33.125c0,22.63-2.256,39.224-6.758,49.783
				C637.097,280.097,629.289,288.844,618.181,295.782z"/>
			<path fill="#C1272D" d="M773.879,161.545c0-2.349,0.818-4.375,2.455-6.08c1.639-1.701,3.57-2.556,5.797-2.556
				c5.264,0,11.672,2.908,19.221,8.725c7.553,5.815,15.656,14.129,24.318,24.938c13.225,16.567,23.172,34.013,29.846,52.342
				c6.668,18.328,10.006,37.421,10.006,57.274c0,21.741-4.039,42.653-12.113,62.742c-8.076,20.089-20.074,39.005-35.99,56.745
				c-6.791,7.517-13.287,13.313-19.486,17.364c-6.207,4.053-11.59,6.076-16.152,6.076c-2.109,0-3.951-0.789-5.531-2.373
				c-1.58-1.59-2.369-3.555-2.369-5.91c0-2.58,2.855-8.57,8.572-17.975c4.193-6.934,7.457-12.569,9.789-16.919
				c9.441-17.623,16.266-34.368,20.459-50.228c4.197-15.858,6.295-32.364,6.295-49.522c0-15.389-1.688-30.311-5.068-44.762
				c-3.385-14.452-8.568-28.843-15.564-43.178c-3.85-7.755-8.889-16.832-15.127-27.228
				C776.996,170.622,773.879,164.132,773.879,161.545z"/>
		</g>
	</g>
	<g>
		<path fill="#333333" d="M201.546,627.119h-21.522l-2.975-19.242c-2.844-2.842-6.431-5.09-10.761-6.744
			c-4.331-1.65-9.439-2.479-15.323-2.479c-12.563,0-22.233,4.562-29.01,13.686c-6.778,9.125-10.166,21.027-10.166,35.705v5.059
			c0,14.678,3.372,26.613,10.116,35.805c6.744,9.189,16.266,13.785,28.564,13.785c5.686,0,10.893-0.826,15.621-2.48
			c4.727-1.65,8.381-3.9,10.959-6.744l2.975-19.24h21.522v28.564c-5.819,6.744-13.24,12.117-22.266,16.115
			c-9.025,4-19.126,6.002-30.299,6.002c-19.374,0-35.243-6.711-47.606-20.135c-12.365-13.422-18.547-30.646-18.547-51.672v-4.859
			c0-20.959,6.149-38.184,18.447-51.674c12.298-13.488,28.2-20.232,47.706-20.232c11.173,0,21.257,2.033,30.25,6.1
			c8.992,4.066,16.43,9.439,22.315,16.117V627.119z"/>
		<path fill="#333333" d="M220.406,668.18c0-16.002,4.479-29.109,13.438-39.326c8.959-10.215,21.339-15.322,37.143-15.322
			c15.869,0,28.281,5.092,37.242,15.273c8.958,10.184,13.439,23.307,13.439,39.375v2.082c0,16.133-4.48,29.275-13.439,39.424
			c-8.96,10.15-21.308,15.225-37.043,15.225c-15.936,0-28.382-5.074-37.341-15.225c-8.96-10.148-13.438-23.291-13.438-39.424V668.18
			z M249.366,670.262c0,9.785,1.719,17.639,5.158,23.555c3.437,5.918,8.991,8.877,16.662,8.877c7.471,0,12.943-2.975,16.414-8.926
			s5.207-13.787,5.207-23.506v-2.082c0-9.521-1.753-17.291-5.257-23.309c-3.505-6.016-9.025-9.025-16.562-9.025
			c-7.538,0-13.027,3.01-16.464,9.025c-3.439,6.018-5.158,13.787-5.158,23.309V670.262z"/>
		<path fill="#333333" d="M408.961,709.734c-3.372,4.959-7.356,8.729-11.951,11.307c-4.596,2.578-9.836,3.869-15.72,3.869
			c-13.225,0-23.49-4.826-30.795-14.48c-7.307-9.654-10.959-22.414-10.959-38.283v-2.084c0-16.926,3.669-30.58,11.009-40.961
			c7.339-10.379,17.654-15.57,30.944-15.57c5.355,0,10.181,1.174,14.48,3.52c4.297,2.35,8.066,5.672,11.307,9.969v-38.482
			l-15.472-2.975v-17.455h15.472h28.96v134.387l13.885,2.977v17.355h-38.978L408.961,709.734z M368.496,672.146
			c0,9.389,1.57,16.777,4.711,22.166c3.14,5.391,8.282,8.084,15.422,8.084c4.231,0,7.9-0.859,11.009-2.58
			c3.107-1.719,5.653-4.197,7.637-7.438v-45.523c-1.984-3.438-4.513-6.1-7.587-7.984s-6.695-2.826-10.86-2.826
			c-7.076,0-12.233,3.141-15.472,9.422c-3.241,6.283-4.86,14.48-4.86,24.596V672.146z"/>
		<path fill="#333333" d="M532.554,722.826c-0.793-1.785-1.488-3.619-2.083-5.504c-0.595-1.885-1.058-3.785-1.388-5.703
			c-3.439,3.967-7.622,7.176-12.546,9.621c-4.926,2.445-10.562,3.67-16.91,3.67c-10.513,0-18.861-2.859-25.042-8.58
			c-6.184-5.719-9.273-13.504-9.273-23.357c0-10.049,4.032-17.816,12.1-23.307c8.066-5.486,19.901-8.232,35.506-8.232h14.778
			v-10.512c0-5.158-1.488-9.158-4.463-12.002c-2.976-2.842-7.374-4.264-13.191-4.264c-3.307,0-6.249,0.381-8.827,1.141
			s-4.661,1.67-6.248,2.727l-1.885,11.506h-21.819l0.099-23.803c5.289-3.57,11.356-6.58,18.2-9.025
			c6.843-2.445,14.297-3.67,22.365-3.67c13.29,0,24.083,3.258,32.382,9.77c8.297,6.512,12.447,15.785,12.447,27.818v44.334
			c0,1.654,0.016,3.207,0.05,4.662c0.032,1.455,0.148,2.844,0.347,4.164l8.827,1.191v17.355H532.554z M507.461,703.486
			c4.364,0,8.331-0.941,11.901-2.826s6.348-4.248,8.331-7.092v-16.365h-14.778c-6.149,0-10.811,1.439-13.984,4.314
			c-3.173,2.877-4.76,6.332-4.76,10.365c0,3.637,1.173,6.48,3.521,8.529C500.038,702.463,503.296,703.486,507.461,703.486z"/>
		<path fill="#333333" d="M579.778,705.471l13.984-2.977v-66.549l-15.472-2.975v-17.457h44.432v86.98l13.885,2.977v17.355h-56.83
			V705.471z M622.723,589.826h-28.96v-21.719h28.96V589.826z"/>
		<path fill="#333333" d="M738.58,652.41h-19.439l-3.074-13.391c-1.984-1.586-4.48-2.908-7.488-3.967
			c-3.01-1.057-6.332-1.586-9.967-1.586c-5.092,0-9.125,1.141-12.1,3.42c-2.977,2.281-4.465,5.143-4.465,8.58
			c0,3.24,1.422,5.936,4.266,8.082c2.842,2.15,8.529,4.053,17.059,5.703c13.291,2.646,23.143,6.531,29.557,11.654
			c6.412,5.125,9.619,12.184,9.619,21.174c0,9.656-4.15,17.541-12.447,23.654c-8.297,6.117-19.225,9.176-32.777,9.176
			c-8.268,0-15.854-1.207-22.762-3.621c-6.91-2.412-13.043-5.867-18.398-10.363l-0.297-24.102h20.232l3.967,13.984
			c1.719,1.455,4.066,2.529,7.041,3.223c2.977,0.695,6.084,1.043,9.324,1.043c5.883,0,10.363-1.057,13.438-3.174
			c3.074-2.115,4.613-4.992,4.613-8.629c0-3.174-1.555-5.916-4.662-8.232c-3.109-2.312-8.828-4.363-17.158-6.148
			c-12.631-2.58-22.166-6.398-28.613-11.455c-6.447-5.059-9.67-11.951-9.67-20.68c0-8.99,3.701-16.744,11.107-23.258
			c7.404-6.512,17.951-9.77,31.639-9.77c8.332,0,16.217,1.125,23.654,3.373c7.439,2.248,13.273,5.125,17.506,8.629L738.58,652.41z"
			/>
		<path fill="#333333" d="M847.99,652.41h-19.439l-3.074-13.391c-1.984-1.586-4.48-2.908-7.488-3.967
			c-3.01-1.057-6.332-1.586-9.967-1.586c-5.092,0-9.125,1.141-12.1,3.42c-2.977,2.281-4.465,5.143-4.465,8.58
			c0,3.24,1.422,5.936,4.266,8.082c2.842,2.15,8.529,4.053,17.059,5.703c13.291,2.646,23.143,6.531,29.557,11.654
			c6.412,5.125,9.619,12.184,9.619,21.174c0,9.656-4.15,17.541-12.447,23.654c-8.297,6.117-19.225,9.176-32.777,9.176
			c-8.268,0-15.854-1.207-22.762-3.621c-6.91-2.412-13.043-5.867-18.398-10.363l-0.297-24.102h20.232l3.967,13.984
			c1.719,1.455,4.066,2.529,7.041,3.223c2.977,0.695,6.084,1.043,9.324,1.043c5.883,0,10.363-1.057,13.438-3.174
			c3.074-2.115,4.613-4.992,4.613-8.629c0-3.174-1.555-5.916-4.662-8.232c-3.109-2.312-8.828-4.363-17.158-6.148
			c-12.631-2.58-22.166-6.398-28.613-11.455c-6.447-5.059-9.67-11.951-9.67-20.68c0-8.99,3.701-16.744,11.107-23.258
			c7.404-6.512,17.951-9.77,31.639-9.77c8.332,0,16.217,1.125,23.654,3.373c7.439,2.248,13.273,5.125,17.506,8.629L847.99,652.41z"
			/>
		<path fill="#333333" d="M921.199,724.91c-15.471,0-27.836-4.959-37.092-14.877c-9.258-9.918-13.885-22.514-13.885-37.787v-3.969
			c0-15.934,4.379-29.059,13.141-39.373c8.76-10.314,20.514-15.439,35.258-15.373c14.48,0,25.721,4.363,33.721,13.092
			c8,8.727,12.002,20.529,12.002,35.406v15.77h-64.07l-0.199,0.596c0.529,7.076,2.893,12.893,7.092,17.455
			c4.197,4.562,9.9,6.844,17.109,6.844c6.412,0,11.734-0.645,15.967-1.934c4.23-1.289,8.859-3.322,13.885-6.1l7.836,17.852
			c-4.432,3.506-10.166,6.447-17.207,8.828C937.713,723.719,929.861,724.91,921.199,724.91z M918.621,635.846
			c-5.355,0-9.588,2.051-12.695,6.15s-5.025,9.488-5.752,16.166l0.297,0.496h35.508v-2.58c0-6.148-1.439-11.059-4.314-14.727
			C928.787,637.682,924.439,635.846,918.621,635.846z"/>
		<path fill="#333333" d="M1057.984,709.238c-3.439,5.027-7.688,8.895-12.744,11.605c-5.059,2.709-10.828,4.066-17.309,4.066
			c-11.305,0-20.166-3.621-26.58-10.861s-9.619-18.496-9.619-33.77v-44.334l-11.803-2.975v-17.457h11.803h28.961v64.963
			c0,7.803,1.305,13.406,3.916,16.811c2.611,3.406,6.496,5.109,11.654,5.109c4.562,0,8.512-0.744,11.852-2.232
			c3.338-1.488,6.066-3.619,8.184-6.396v-57.822l-12.695-2.975v-17.457h12.695h28.959v86.98l12.992,2.977v17.355h-38.381
			L1057.984,709.238z"/>
		<path fill="#333333" d="M1116.713,705.471l13.885-2.977v-66.549l-15.373-2.975v-17.457h42.35l1.289,15.672
			c2.514-5.555,5.754-9.885,9.721-12.994c3.967-3.105,8.562-4.66,13.785-4.66c1.521,0,3.125,0.115,4.811,0.348
			s3.09,0.512,4.215,0.842l-3.074,26.383l-11.9-0.299c-4.232,0-7.736,0.828-10.514,2.48s-4.895,4-6.348,7.041v52.168l13.885,2.977
			v17.355h-56.73V705.471z"/>
	</g>
</g>
</svg>
